<?xml version="1.0" standalone="no"?>
<!DOCTYPE svg PUBLIC "-//W3C//DTD SVG 20010904//EN"
 "http://www.w3.org/TR/2001/REC-SVG-20010904/DTD/svg10.dtd">
<svg version="1.0" xmlns="http://www.w3.org/2000/svg"
 width="634.000000pt" height="1024.000000pt" viewBox="0 0 634.000000 1024.000000"
 preserveAspectRatio="xMidYMid meet">

<g transform="translate(0.000000,1024.000000) scale(0.100000,-0.100000)"
fill="#000000" stroke="none">
<path d="M0 9827 l0 -414 23 -22 c21 -19 25 -20 37 -6 17 20 33 19 54 -3 15
-18 15 -20 -4 -37 l-20 -18 27 -29 c30 -32 45 -35 63 -13 12 14 15 14 31 -1
26 -23 24 -39 -7 -63 -40 -31 -78 -27 -123 15 -35 31 -42 34 -60 22 -18 -11
-21 -23 -21 -80 0 -37 5 -70 10 -73 13 -8 13 -95 0 -95 -7 0 -10 -207 -10
-601 0 -330 3 -599 8 -597 4 2 19 10 34 17 34 17 89 8 113 -20 18 -19 18 -21
-35 -74 -30 -30 -51 -57 -47 -61 14 -14 56 7 69 36 16 37 58 43 58 9 0 -83
-120 -138 -182 -82 -17 15 -18 14 -18 -30 0 -25 5 -58 12 -72 9 -19 9 -28 0
-37 -18 -18 -17 -1235 1 -1220 9 8 22 6 45 -5 27 -13 32 -21 32 -49 0 -28 -4
-35 -27 -40 -14 -4 -34 -2 -45 5 -17 10 -18 7 -18 -49 0 -40 4 -60 12 -60 6 0
22 -9 34 -21 19 -18 20 -24 11 -49 -6 -17 -21 -31 -34 -35 l-23 -5 0 -569 0
-568 46 -103 45 -103 -27 -28 c-21 -22 -31 -26 -45 -18 -18 9 -19 -9 -19 -601
0 -513 2 -610 14 -610 22 0 26 -49 5 -64 -15 -10 -18 -25 -17 -90 2 -71 3 -75
15 -52 11 21 21 26 50 26 20 0 44 -7 54 -16 15 -13 16 -20 6 -42 -15 -35 -25
-42 -64 -42 -22 0 -37 7 -47 22 -15 20 -16 -39 -16 -655 l0 -677 61 -31 c34
-16 63 -28 66 -26 2 3 -9 32 -26 65 l-30 59 23 22 c12 11 25 21 28 21 2 0 24
-45 48 -100 l43 -100 -23 -25 c-13 -14 -29 -25 -35 -25 -7 0 -42 14 -78 30
-37 17 -69 30 -72 30 -14 0 -2 -35 20 -62 35 -41 35 -105 0 -146 l-25 -30 0
-588 1 -589 28 34 c28 32 30 32 40 13 8 -14 8 -29 1 -48 -9 -23 -15 -26 -40
-20 l-30 5 0 -134 0 -135 605 0 c472 1 605 4 605 13 0 7 7 23 16 36 l16 22 24
-22 c18 -17 21 -25 13 -36 -9 -10 -5 -13 20 -13 36 0 36 -1 16 36 -19 37 -19
67 0 104 21 42 53 60 103 60 37 0 50 -6 79 -35 33 -33 35 -39 30 -81 -2 -25
-13 -54 -23 -65 -18 -19 -14 -20 1522 -18 l1539 1 -62 26 c-67 27 -74 39 -43
67 19 17 22 16 82 -13 35 -17 64 -29 66 -27 2 2 -10 30 -27 64 l-31 60 24 28
c13 15 26 26 28 23 17 -20 89 -204 84 -216 -5 -12 82 -14 639 -14 643 0 644 0
659 21 l14 21 11 -21 c10 -17 21 -21 61 -21 45 0 50 2 50 23 0 42 11 63 39 74
23 8 33 7 51 -7 19 -14 22 -24 17 -54 l-6 -36 60 0 59 0 0 88 -1 87 -45 39
c-41 35 -49 38 -66 27 -18 -11 -24 -10 -40 7 -17 17 -18 22 -7 40 11 18 10 24
-4 40 -16 18 -16 20 6 40 24 22 24 22 42 2 18 -19 18 -19 43 1 l26 20 20 -20
20 -21 -22 -23 -22 -23 25 -24 25 -23 0 69 c0 41 -5 75 -12 82 -9 9 -9 15 0
24 9 9 12 358 12 1511 l0 1499 -25 30 c-35 41 -35 105 0 146 l25 30 0 1364 0
1365 -49 -5 c-40 -3 -56 0 -80 17 -70 50 -57 156 23 195 31 15 44 17 72 8 30
-9 34 -8 34 9 0 10 -11 24 -25 32 l-26 13 26 24 25 23 0 1392 0 1391 -55 23
c-30 13 -55 26 -55 30 0 4 10 17 23 29 20 18 25 19 47 7 14 -8 28 -14 33 -15
4 0 7 155 7 345 l0 345 -317 0 c-304 0 -318 -1 -338 -20 l-22 -20 -44 20 c-24
11 -61 20 -83 20 l-38 0 31 -35 c35 -40 40 -79 16 -125 -21 -41 -53 -60 -102
-60 -61 0 -103 39 -110 103 -5 43 -3 49 30 82 l35 35 -558 0 c-550 0 -559 0
-565 -20 -3 -11 -15 -20 -25 -20 -10 0 -25 -3 -34 -6 -9 -3 -26 5 -41 20 l-26
26 -741 0 c-656 0 -739 -2 -734 -15 10 -27 -6 -76 -36 -106 -25 -24 -38 -29
-78 -29 -41 0 -53 5 -79 31 -25 25 -31 39 -31 75 l0 44 -1225 0 -1225 0 0
-413z m2418 330 c21 -22 21 -23 2 -35 -31 -19 -24 -54 20 -97 46 -45 48 -55
20 -80 -20 -18 -22 -18 -96 56 l-75 74 34 30 c19 17 39 40 46 53 15 28 22 28
49 -1z m2886 -66 c17 -18 17 -20 -3 -40 -30 -30 -26 -46 24 -100 l45 -48 -25
-23 -26 -24 -74 74 -75 74 22 23 c12 13 28 21 35 19 7 -3 13 2 13 10 0 23 19
54 34 54 7 0 21 -9 30 -19z m-3064 -66 c19 17 21 17 40 0 l20 -18 -20 -22 -20
-21 30 -29 c28 -27 30 -27 54 -12 23 15 26 15 46 -1 l22 -18 -23 -27 c-15 -17
-38 -30 -60 -33 -32 -5 -42 -2 -78 31 -34 31 -44 35 -56 25 -13 -10 -19 -10
-35 5 -15 14 -17 21 -7 35 9 15 7 23 -8 40 -18 20 -18 21 5 45 l24 25 23 -22
c22 -21 23 -21 43 -3z m-1459 -32 c16 -10 29 -22 29 -27 0 -6 -23 -34 -52 -63
-43 -44 -49 -53 -34 -59 19 -7 66 30 66 53 0 7 11 13 25 13 37 0 33 -41 -8
-86 -28 -31 -39 -36 -75 -36 -73 1 -113 39 -114 110 -1 89 87 140 163 95z
m4342 -35 l24 22 18 -20 c17 -19 17 -21 0 -40 -21 -23 -15 -43 20 -66 24 -16
27 -16 46 2 19 17 20 17 42 -5 l22 -22 -33 -30 c-44 -40 -74 -37 -125 11 -39
35 -45 38 -58 24 -14 -13 -17 -12 -34 6 -15 16 -16 22 -5 35 11 13 9 19 -8 38
l-22 23 22 22 22 22 23 -22 23 -21 23 21z m-4512 -154 c54 -118 55 -125 25
-153 -28 -27 -24 -28 -170 39 l-70 31 26 25 25 26 63 -32 c34 -17 64 -29 67
-27 2 3 -9 32 -26 65 l-30 60 20 26 c11 14 23 26 25 26 3 0 23 -39 45 -86z
m3107 66 c17 -11 32 -23 32 -27 0 -4 -23 -31 -52 -60 -54 -55 -57 -70 -13 -59
17 4 30 17 37 36 12 37 58 44 58 10 0 -89 -128 -142 -187 -77 -55 60 -54 117
3 166 41 36 75 39 122 11z m-1603 -22 c19 -9 25 -19 25 -44 0 -28 -4 -35 -27
-40 -57 -15 -110 52 -67 83 22 16 36 16 69 1z m-121 -14 c19 -7 21 -47 3 -63
-10 -8 -19 -4 -36 19 -30 41 -14 62 33 44z m3027 -81 c13 -36 12 -41 -19 -57
-26 -13 -31 -13 -60 6 -38 24 -42 59 -10 80 30 20 76 5 89 -29z m-137 11 c22
-9 20 -51 -3 -64 -16 -8 -22 -4 -39 24 -11 19 -18 37 -15 40 8 8 37 8 57 0z
m-2700 -17 c15 -11 17 -21 12 -53 -6 -33 -13 -42 -38 -52 -27 -10 -35 -9 -50
5 -24 21 -23 68 2 93 23 23 49 26 74 7z m1374 -88 l43 -101 -22 -24 c-12 -13
-28 -24 -35 -24 -7 0 -56 19 -108 42 l-96 42 22 23 c27 29 27 29 90 -2 28 -14
55 -25 60 -25 5 0 -6 27 -23 61 l-30 61 22 24 c12 13 25 24 28 24 3 0 25 -46
49 -101z m1520 -9 c6 -40 -7 -68 -37 -78 -40 -14 -71 18 -64 66 10 64 92 74
101 12z m-3096 -15 c-8 -17 -20 -25 -36 -25 -37 0 -39 15 -10 50 24 28 28 30
42 16 13 -12 13 -20 4 -41z m-1539 24 c38 -19 57 -52 57 -97 0 -34 -6 -49 -33
-78 -27 -30 -40 -37 -75 -38 -53 -1 -92 28 -111 80 -12 36 -12 44 4 77 10 21
29 44 44 52 32 17 84 19 114 4z m1653 -20 c21 -20 22 -24 9 -49 -24 -46 -83
-55 -108 -17 -25 38 8 80 67 86 6 1 20 -9 32 -20z m2772 -35 c15 -26 -8 -64
-39 -64 -38 0 -41 9 -12 46 28 38 38 41 51 18z m116 -32 c13 -15 14 -24 5 -49
-14 -42 -71 -55 -102 -24 -17 17 -19 26 -11 48 14 41 79 56 108 25z m-1572
-61 c73 -82 -10 -214 -117 -187 -65 16 -101 95 -71 158 36 75 133 90 188 29z
m-3164 6 c21 -22 21 -23 2 -35 -32 -20 -24 -58 21 -107 41 -44 41 -46 24 -65
-10 -11 -23 -20 -29 -20 -14 0 -146 131 -146 146 0 16 37 47 49 40 5 -4 13 4
17 16 7 26 23 48 33 48 4 0 17 -10 29 -23z m6038 -70 c31 -28 36 -39 36 -76
-2 -140 -191 -165 -221 -28 -16 69 39 137 110 137 30 0 48 -8 75 -33z m-3098
-88 c-31 -18 -22 -60 24 -106 l42 -43 -25 -25 -24 -25 -75 75 -74 74 23 25
c13 14 28 23 32 20 5 -3 9 1 9 8 0 8 7 24 16 37 l17 23 26 -27 c24 -24 25 -27
9 -36z m2880 -32 c22 -23 22 -23 2 -40 -31 -26 -24 -57 22 -104 l42 -43 -25
-25 -24 -25 -75 75 -74 74 23 25 c13 14 27 23 31 21 4 -2 14 11 23 30 20 41
26 43 55 12z m-3108 -62 c16 -19 29 -19 50 0 15 14 19 13 35 -5 17 -19 17 -21
0 -40 -18 -20 -18 -21 5 -45 25 -27 49 -32 67 -14 14 14 53 -5 53 -26 0 -23
-50 -55 -86 -55 -25 0 -45 10 -72 35 -34 30 -40 32 -53 19 -14 -13 -17 -12
-34 6 -15 16 -16 22 -5 35 11 13 9 19 -8 38 l-22 23 22 22 c26 26 32 27 48 7z
m-1438 -25 c13 -5 32 -16 43 -25 18 -15 17 -17 -35 -70 -55 -56 -60 -72 -16
-61 15 4 28 17 34 36 8 23 17 30 36 30 30 0 33 -17 11 -64 -28 -59 -96 -81
-155 -51 -80 41 -77 159 4 199 37 18 47 19 78 6z m4318 -45 c16 -19 29 -19 52
2 17 15 19 15 38 -2 l20 -18 -22 -25 -23 -24 28 -24 c33 -28 50 -30 67 -9 12
14 15 14 31 -1 24 -22 24 -33 -3 -61 -34 -36 -84 -31 -130 14 -31 31 -39 34
-53 23 -13 -11 -19 -10 -35 5 -18 17 -19 20 -5 34 13 13 12 17 -7 38 -21 22
-21 23 -3 43 22 24 29 25 45 5z m-1412 -35 c17 -11 32 -25 32 -32 0 -7 -24
-36 -52 -66 -53 -53 -53 -53 -23 -50 23 2 34 11 45 35 10 22 22 33 38 33 45 0
15 -87 -40 -116 -108 -56 -216 85 -134 175 40 44 84 51 134 21z m-3042 -147
l44 -97 -26 -27 -26 -27 -82 35 c-44 19 -92 39 -105 44 l-25 10 27 27 27 26
66 -32 c36 -18 63 -29 61 -25 -3 4 -17 34 -31 67 l-27 59 22 23 c12 13 24 22
27 19 3 -2 24 -48 48 -102z m1498 66 c36 -28 34 -63 -3 -79 -58 -23 -117 45
-70 81 31 24 41 23 73 -2z m-130 -9 c30 -11 33 -35 10 -61 -16 -17 -18 -17
-39 14 -15 22 -19 36 -12 45 11 14 9 14 41 2z m1514 -121 l43 -101 -22 -24
c-12 -13 -28 -24 -35 -24 -7 0 -56 19 -109 42 l-96 42 26 25 25 25 65 -32 c36
-17 65 -29 65 -27 0 3 -14 33 -31 66 l-30 61 22 24 c12 13 25 24 28 24 3 0 25
-46 49 -101z m1492 66 c40 -21 42 -66 5 -83 -57 -26 -120 48 -71 82 27 19 31
19 66 1z m-114 -15 c11 0 14 -9 12 -32 -4 -43 -28 -47 -51 -8 -19 32 -14 55
10 46 8 -3 21 -6 29 -6z m-2703 -14 c29 -22 20 -86 -15 -106 -40 -22 -62 -5
-66 52 -3 38 0 46 20 56 30 14 40 14 61 -2z m-191 -106 c-9 -26 -24 -40 -43
-40 -30 0 -32 19 -4 56 25 32 28 34 40 18 7 -10 10 -25 7 -34z m3072 37 c18
-13 25 -74 12 -95 -12 -20 -58 -23 -77 -6 -27 24 -25 79 3 98 27 19 39 20 62
3z m-4619 -23 c33 -15 65 -65 65 -99 0 -32 -33 -86 -61 -100 -49 -26 -97 -19
-135 19 -26 26 -34 42 -34 70 0 50 23 90 62 109 42 21 62 21 103 1z m1661 -25
c17 -19 17 -23 3 -47 -20 -36 -92 -45 -108 -13 -11 20 -6 45 12 69 15 20 72
15 93 -9z m2764 -28 c7 -14 7 -27 -2 -46 -10 -22 -16 -25 -37 -20 -14 4 -28 8
-29 10 -4 4 48 75 54 75 2 0 8 -9 14 -19z m-1507 -41 c63 -71 8 -190 -88 -190
-96 0 -146 117 -81 189 29 32 54 41 101 36 29 -3 48 -12 68 -35z m1629 3 c13
-16 13 -22 2 -50 -13 -30 -18 -33 -57 -33 -54 0 -74 28 -51 73 12 22 21 27 53
27 24 0 44 -7 53 -17z m-4741 -92 c-30 -30 -27 -46 24 -100 l45 -48 -25 -23
-26 -24 -74 74 -75 74 22 23 c12 13 27 23 35 23 7 0 13 6 13 13 0 7 7 23 16
36 l17 23 24 -25 25 -25 -21 -21z m2887 -62 c-31 -18 -22 -60 24 -106 l42 -43
-25 -25 -24 -25 -75 75 -74 74 23 25 c13 14 28 23 32 20 5 -3 9 0 9 6 0 6 7
22 17 36 l16 25 26 -26 c24 -24 25 -27 9 -36z m-3108 -24 c16 -19 29 -19 50 0
15 14 19 13 35 -5 17 -19 17 -21 0 -40 -18 -20 -18 -21 5 -45 26 -27 49 -32
68 -13 10 10 17 7 34 -10 l22 -22 -26 -27 c-41 -41 -88 -37 -136 10 -34 33
-39 35 -53 22 -14 -14 -17 -14 -34 5 -15 16 -16 22 -5 35 11 13 9 19 -8 38
l-22 23 22 22 c26 26 32 27 48 7z m2885 -75 l18 -20 22 20 22 20 18 -20 c17
-19 17 -21 0 -40 -18 -20 -18 -21 5 -45 25 -27 49 -32 67 -14 8 8 17 8 32 0
27 -15 27 -32 -1 -58 -47 -42 -95 -35 -147 21 -22 23 -26 24 -41 11 -15 -14
-19 -13 -35 5 -15 16 -16 22 -5 35 11 13 9 19 -8 38 l-22 23 22 22 c27 27 30
27 53 2z m-1356 -91 l34 -20 -58 -59 c-46 -47 -55 -61 -43 -65 24 -9 57 12 64
40 5 19 13 25 34 25 24 0 27 -3 22 -27 -8 -42 -29 -69 -69 -88 -30 -14 -42
-15 -74 -6 -53 16 -79 52 -79 111 0 42 4 52 35 79 43 37 85 40 134 10z m-1619
-14 c17 -9 30 -22 30 -29 0 -8 2 -21 6 -29 3 -9 -6 -19 -26 -27 -28 -11 -34
-11 -58 7 -35 26 -39 57 -10 77 27 19 23 19 58 1z m-96 -37 c8 -13 6 -22 -8
-37 l-19 -21 -22 33 c-13 17 -21 36 -18 40 8 14 55 3 67 -15z m4601 -22 l30
-25 -53 -54 c-35 -35 -50 -57 -43 -62 17 -10 61 22 61 45 0 16 7 20 30 20 37
0 40 -23 7 -71 -43 -64 -126 -69 -179 -9 -42 45 -39 101 6 146 43 43 95 47
141 10z m-1619 -12 c27 -13 34 -22 34 -45 0 -59 -87 -59 -113 -1 -9 20 -7 27
13 43 30 23 25 22 66 3z m-98 -44 c3 -14 -3 -29 -13 -36 -15 -11 -21 -9 -40
19 -26 39 -17 58 23 48 18 -5 28 -15 30 -31z m-2701 -6 c3 -8 2 -29 -1 -47 -4
-24 -14 -36 -35 -44 -26 -9 -32 -8 -50 11 -29 31 -19 92 18 104 29 10 59 0 68
-24z m1362 -68 c22 -52 41 -98 41 -103 0 -5 -11 -20 -25 -33 l-25 -23 -100 43
c-55 24 -100 46 -100 48 0 3 10 16 21 28 l22 23 59 -30 c33 -17 62 -28 65 -26
2 3 -9 32 -26 64 l-30 60 22 21 c12 12 24 22 28 22 3 0 25 -42 48 -94z m-1575
-23 c-6 -17 -18 -29 -32 -31 -33 -5 -38 23 -10 57 20 25 25 27 37 15 11 -10
13 -20 5 -41z m3079 43 c11 -9 17 -27 17 -55 0 -37 -3 -42 -32 -55 -29 -11
-35 -11 -50 2 -27 23 -24 85 5 105 27 20 37 20 60 3z m1381 -93 l44 -101 -28
-27 -28 -27 -98 43 c-55 24 -101 44 -103 46 -3 2 7 15 21 29 l25 26 61 -31
c34 -17 64 -31 67 -31 2 0 -10 29 -27 65 l-32 64 24 26 c13 14 25 24 27 22 1
-2 23 -49 47 -104z m-4341 49 c14 -15 15 -23 5 -50 -11 -29 -16 -32 -53 -32
-44 0 -65 13 -65 42 0 48 80 77 113 40z m2766 -36 c18 -21 -6 -66 -35 -66 -33
0 -38 16 -14 50 24 34 32 36 49 16z m116 -36 c15 -17 16 -24 5 -50 -11 -27
-17 -30 -56 -30 -33 0 -46 5 -54 20 -11 21 1 57 24 72 21 14 63 8 81 -12z
m-1602 -31 c39 -20 57 -51 57 -101 0 -38 -5 -52 -30 -76 -38 -38 -78 -47 -123
-28 -47 19 -72 58 -70 110 3 78 96 131 166 95z m2900 -79 c52 -41 56 -130 8
-174 -50 -46 -139 -37 -171 17 -32 51 -26 103 14 143 29 29 41 34 79 34 29 0
53 -7 70 -20z m-3094 -64 l23 -24 -21 -11 c-33 -18 -26 -56 20 -106 41 -44 41
-46 24 -65 -10 -11 -23 -20 -29 -20 -6 0 -43 31 -81 70 l-69 69 23 25 c13 14
27 23 31 21 4 -2 14 11 23 30 20 41 26 43 56 11z m2879 -69 c22 -23 22 -23 2
-40 -30 -25 -25 -47 25 -97 l45 -46 -25 -24 -26 -24 -74 74 -75 74 22 23 c12
13 26 23 32 23 6 0 17 14 24 30 16 36 22 37 50 7z m-3058 -62 c19 17 21 17 40
0 l20 -18 -20 -22 -20 -21 28 -27 c32 -31 44 -33 62 -12 12 14 15 14 31 -1 26
-23 24 -39 -7 -63 -40 -32 -78 -27 -124 15 -33 30 -43 34 -55 24 -13 -10 -19
-10 -35 5 -15 14 -17 21 -7 35 9 15 7 23 -8 40 -18 20 -18 21 5 45 l24 25 23
-22 c22 -21 23 -21 43 -3z m2880 -70 c19 17 21 17 40 0 l20 -18 -20 -22 -20
-21 28 -27 c33 -31 39 -32 62 -12 15 14 20 14 41 -5 l24 -20 -33 -30 c-45 -41
-81 -40 -132 6 -33 30 -43 34 -55 24 -13 -10 -19 -9 -35 5 -18 17 -19 20 -5
34 13 13 12 17 -7 38 l-21 23 23 25 24 25 23 -22 c22 -21 23 -21 43 -3z
m-1454 -36 c19 -11 34 -23 34 -27 0 -4 -23 -30 -52 -59 -28 -29 -49 -56 -45
-59 13 -13 56 15 63 41 5 20 12 25 35 25 27 0 29 -2 23 -27 -17 -73 -79 -114
-144 -94 -51 15 -72 42 -78 101 -4 46 -2 52 31 85 42 42 82 46 133 14z m-1548
-75 c32 -22 30 -67 -4 -83 -36 -16 -84 12 -84 51 0 44 47 61 88 32z m-130 -10
c26 -7 30 -45 7 -64 -9 -7 -17 -11 -18 -9 -47 66 -44 87 11 73z m4589 -25 c15
-6 36 -18 46 -27 17 -15 15 -19 -40 -74 -55 -56 -56 -58 -30 -58 21 0 33 8 48
35 26 43 59 48 59 9 0 -35 -33 -78 -70 -94 -61 -25 -126 8 -150 77 -15 42 8
96 52 123 38 23 46 24 85 9z m-3078 -93 c22 -52 41 -98 41 -103 0 -5 -11 -20
-25 -33 l-25 -23 -100 43 c-55 24 -100 46 -100 48 0 3 10 16 21 28 l22 23 59
-30 c33 -17 62 -28 65 -26 2 3 -9 32 -26 64 l-30 60 22 21 c12 12 24 22 28 22
3 0 25 -42 48 -94z m1495 63 c15 -7 26 -22 28 -41 4 -24 0 -32 -22 -43 -24
-12 -30 -12 -58 5 -36 22 -42 55 -14 76 21 17 34 17 66 3z m-110 -25 c9 -8 16
-21 16 -28 0 -13 -19 -36 -30 -36 -12 0 -51 61 -45 70 9 15 42 12 59 -6z
m-2712 -6 c18 -14 21 -27 19 -69 -2 -38 -53 -59 -81 -34 -28 25 -27 79 2 99
27 19 39 20 60 4z m-192 -79 c17 -31 -10 -68 -44 -62 -14 3 -26 8 -26 11 0 7
50 72 55 72 2 0 9 -9 15 -21z m3081 11 c36 -20 21 -93 -22 -111 -25 -10 -32
-9 -50 7 -16 15 -20 26 -15 54 8 52 44 73 87 50z m1378 -91 l42 -102 -26 -27
-27 -28 -104 46 -105 46 26 25 25 25 65 -32 c36 -17 65 -29 65 -27 0 3 -14 33
-31 66 l-30 61 22 24 c12 13 25 24 29 24 3 0 25 -46 49 -101z m-4329 22 c0
-56 -83 -84 -114 -40 -13 19 -13 25 -1 50 25 47 115 39 115 -10z m2751 -50
c-8 -18 -18 -28 -27 -25 -47 14 -46 12 -18 49 24 32 29 34 42 21 12 -12 13
-20 3 -45z m-1538 28 c58 -30 78 -120 37 -171 -68 -88 -200 -42 -200 69 0 84
89 140 163 102z m1653 -20 c19 -18 21 -26 13 -47 -13 -34 -26 -42 -67 -42 -64
0 -69 93 -5 103 15 2 30 5 32 6 3 0 15 -9 27 -20z m1284 -104 c40 -21 60 -53
60 -98 0 -123 -162 -161 -215 -50 -16 33 -16 41 -4 77 15 45 67 86 106 86 13
0 37 -7 53 -15z m-3131 -19 l23 -24 -21 -11 c-33 -18 -26 -56 20 -106 41 -44
41 -46 24 -65 -10 -11 -23 -20 -29 -20 -6 0 -43 31 -81 70 l-69 69 23 25 c13
14 27 23 31 21 4 -2 14 11 23 30 20 41 26 43 56 11z m2938 -164 c-26 -29 -20
-53 25 -99 l42 -43 -25 -25 -24 -25 -75 75 -74 74 23 25 c13 14 27 23 31 21 4
-2 14 12 24 32 l17 36 27 -26 c24 -25 25 -27 9 -45z m-3117 33 c19 17 21 17
40 0 l20 -18 -20 -22 -20 -21 28 -27 c32 -31 44 -33 62 -12 12 14 15 14 31 -1
26 -23 24 -39 -7 -63 -41 -32 -82 -27 -126 16 -31 31 -39 34 -53 23 -13 -11
-19 -10 -35 5 -15 14 -17 21 -7 35 9 15 7 23 -8 40 -18 20 -18 21 5 45 l24 25
23 -22 c22 -21 23 -21 43 -3z m-1396 -96 l28 -22 -51 -51 c-28 -28 -51 -55
-51 -59 0 -4 12 -7 26 -7 19 0 28 7 37 29 12 32 55 49 64 25 8 -21 -28 -84
-58 -99 -49 -26 -97 -19 -135 19 -47 47 -48 100 -3 151 26 30 37 35 74 35 28
0 51 -7 69 -21z m4291 -29 l18 -20 22 20 22 20 18 -20 c17 -19 17 -21 0 -40
-18 -20 -18 -21 5 -45 25 -27 49 -32 67 -14 13 13 53 -5 53 -25 0 -16 -39 -52
-67 -60 -26 -8 -68 12 -102 48 -22 23 -26 24 -41 11 -15 -14 -19 -13 -35 5
-15 16 -16 22 -5 35 10 13 10 19 -4 33 -20 23 -20 31 1 54 20 23 26 23 48 -2z
m-1408 -39 c12 -9 23 -20 23 -26 0 -5 -24 -33 -52 -63 -53 -53 -53 -53 -23
-50 19 2 34 11 41 27 21 42 64 56 64 21 0 -55 -57 -110 -115 -110 -67 0 -122
63 -111 128 13 84 104 122 173 73z m-1609 -17 c32 -22 30 -67 -4 -83 -55 -25
-114 49 -66 85 23 18 43 17 70 -2z m-130 -10 c19 -5 23 -12 20 -38 -4 -41 -29
-44 -51 -5 -24 43 -15 55 31 43z m-1288 -170 l18 -42 -27 -26 -28 -27 -94 41
c-52 23 -97 45 -102 49 -4 4 4 17 17 30 l24 22 61 -30 c33 -17 63 -31 66 -31
2 0 -10 29 -27 65 l-32 64 24 27 25 26 29 -64 c16 -34 37 -82 46 -104z m1481
75 c14 -14 19 -28 15 -42 -3 -12 -6 -27 -6 -33 0 -6 -14 -17 -30 -24 -26 -11
-33 -10 -50 5 -26 23 -26 69 0 95 26 26 45 25 71 -1z m1378 -89 l41 -94 -28
-28 -28 -29 -80 37 c-43 20 -90 40 -103 45 l-25 10 26 26 26 26 66 -31 c36
-17 66 -29 66 -26 0 2 -14 32 -31 65 l-30 61 22 24 c13 13 26 21 30 17 4 -5
26 -51 48 -103z m1487 74 c46 -22 48 -66 5 -84 -36 -15 -67 -1 -82 38 -9 22
-7 29 13 44 28 21 23 21 64 2z m-98 -46 c2 -20 -23 -60 -31 -47 -1 2 -12 18
-24 35 -26 37 -15 55 25 45 19 -5 28 -15 30 -33z m-2968 -47 c-11 -26 -16 -30
-39 -24 -36 8 -36 8 -5 48 24 32 29 34 42 21 13 -12 13 -20 2 -45z m121 3 c15
-13 16 -20 6 -42 -15 -35 -25 -42 -64 -42 -21 0 -37 7 -47 21 -13 19 -13 25 0
50 12 24 21 29 51 29 20 0 44 -7 54 -16z m3012 -8 c11 -9 17 -27 17 -55 0 -37
-3 -42 -32 -55 -44 -18 -68 1 -68 55 0 32 5 41 28 53 33 18 33 18 55 2z
m-4606 -32 c60 -38 66 -120 12 -174 -50 -49 -137 -39 -172 20 -27 45 -22 94
13 134 42 48 94 55 147 20z m4412 -48 c18 -21 -6 -66 -35 -66 -34 0 -38 16
-13 50 26 34 32 36 48 16z m-1545 -11 c59 -28 81 -96 51 -155 -35 -67 -120
-82 -177 -31 -29 26 -33 36 -33 79 0 56 19 86 70 108 39 17 51 17 89 -1z
m1661 -25 c15 -17 16 -24 5 -50 -11 -27 -17 -30 -56 -30 -33 0 -46 5 -54 20
-11 21 1 57 24 72 21 14 63 8 81 -12z m-4739 -51 c22 -20 22 -21 3 -40 -28
-28 -24 -44 21 -93 46 -50 47 -56 20 -81 -20 -18 -22 -18 -95 55 l-75 74 22
23 c12 13 26 23 33 23 6 0 16 14 22 30 13 36 20 37 49 9z m2889 -69 c18 -20
18 -21 0 -33 -30 -23 -22 -64 24 -111 l41 -42 -25 -24 -26 -24 -74 74 -75 74
22 23 c12 13 28 21 35 19 7 -3 13 1 13 9 0 21 22 55 36 55 6 0 19 -9 29 -20z
m-3062 -62 l24 22 18 -20 c18 -20 18 -21 -4 -44 l-22 -23 32 -27 c30 -26 32
-26 56 -10 24 15 27 15 45 -4 19 -19 19 -19 -4 -46 -13 -14 -37 -29 -54 -32
-27 -5 -38 0 -74 32 -37 33 -44 36 -62 25 -17 -10 -23 -10 -39 5 -18 16 -18
18 -2 36 15 17 15 20 -5 41 l-22 23 22 22 22 22 23 -22 23 -21 23 21z m5944
-46 c-26 -29 -20 -53 25 -99 l42 -43 -25 -25 -24 -25 -75 75 c-73 73 -73 75
-55 95 10 11 23 20 30 20 6 0 19 16 29 37 l17 36 27 -26 c24 -25 25 -27 9 -45z
m-3102 -22 l18 -20 22 20 22 20 18 -20 c18 -19 18 -21 0 -40 -18 -20 -18 -21
13 -52 31 -31 32 -32 52 -13 20 18 21 18 43 -4 l22 -22 -33 -30 c-44 -40 -74
-37 -125 11 -39 35 -45 38 -58 24 -14 -13 -17 -12 -34 6 -15 16 -16 22 -5 35
11 13 9 19 -8 38 l-22 23 22 22 c27 27 30 27 53 2z m-1408 -44 l28 -25 -53
-54 c-35 -35 -50 -57 -43 -62 17 -10 61 22 61 45 0 16 7 20 30 20 34 0 38 -15
15 -60 -21 -41 -53 -60 -102 -60 -61 0 -103 39 -110 103 -5 43 -3 49 30 82 44
44 100 49 144 11z m4288 -26 l22 -20 18 20 18 20 24 -22 23 -22 -20 -21 -21
-22 32 -27 c30 -25 33 -26 50 -10 17 16 20 16 45 -1 l26 -17 -28 -29 c-48 -50
-85 -48 -146 9 -23 21 -30 23 -43 12 -14 -11 -19 -10 -37 8 -18 18 -19 23 -8
37 11 13 10 18 -4 33 -20 23 -20 31 1 54 20 23 22 22 48 -2z m-4435 -236 l18
-42 -27 -26 -28 -27 -99 43 c-54 23 -101 44 -103 45 -3 2 7 15 21 29 l25 26
61 -31 c34 -17 64 -31 67 -31 2 0 -10 29 -27 65 l-32 64 24 27 25 26 29 -64
c16 -34 37 -82 46 -104z m3076 145 c19 -11 34 -23 34 -27 0 -4 -23 -30 -52
-59 -28 -29 -49 -56 -45 -59 13 -13 56 15 63 41 5 20 12 25 36 25 28 0 30 -2
23 -27 -25 -105 -153 -135 -205 -50 -32 51 -26 103 14 143 40 40 82 45 132 13z
m-1586 -39 c16 -31 11 -49 -17 -63 -56 -30 -122 46 -73 83 28 21 74 10 90 -20z
m-136 4 c20 -8 21 -48 1 -64 -9 -7 -17 -11 -18 -9 -28 36 -45 68 -40 73 8 8
37 8 57 0z m-2703 -14 c36 -20 21 -91 -24 -108 -44 -17 -71 8 -63 58 8 52 44
73 87 50z m5695 -36 c27 -13 34 -22 34 -45 0 -22 -7 -32 -26 -41 -55 -25 -108
39 -68 83 21 23 18 23 60 3z m-2798 -64 c6 -40 -7 -68 -37 -78 -40 -14 -70 18
-62 66 11 64 90 74 99 12z m2700 22 c3 -22 -13 -52 -27 -52 -8 0 -41 58 -41
71 0 6 15 9 33 7 25 -2 33 -8 35 -26z m-1339 -76 c23 -51 41 -98 41 -103 0 -5
-11 -20 -25 -33 l-25 -23 -100 43 c-55 24 -100 46 -100 48 0 3 10 16 21 28
l22 23 59 -30 c33 -17 62 -28 65 -26 2 3 -9 32 -26 64 l-30 60 22 21 c12 12
24 22 28 22 4 0 25 -42 48 -94z m1504 20 c11 -9 17 -27 17 -55 0 -38 -3 -43
-32 -56 -29 -12 -35 -11 -50 2 -11 10 -18 31 -18 54 0 32 5 41 28 53 33 18 33
18 55 2z m-3075 -13 c16 -28 -6 -63 -40 -63 -33 0 -35 12 -7 51 23 33 34 36
47 12z m-1519 -29 c80 -67 28 -197 -78 -196 -68 1 -111 47 -111 117 0 29 8 45
34 71 45 45 108 48 155 8z m1636 -4 c44 -49 -47 -119 -96 -74 -42 38 -9 88 62
93 9 0 24 -8 34 -19z m2764 -34 c18 -21 -6 -66 -35 -66 -34 0 -38 16 -13 50
26 34 32 36 48 16z m115 -35 c39 -43 -13 -98 -77 -83 -44 11 -39 86 7 95 43 9
53 7 70 -12z m-1595 -36 c111 -57 37 -241 -85 -211 -15 4 -39 20 -55 36 -24
23 -29 37 -29 75 0 40 5 52 34 81 38 38 86 45 135 19z m-3143 -16 c22 -20 22
-21 3 -40 -28 -28 -24 -45 26 -98 l45 -48 -25 -23 -26 -24 -74 74 -75 74 22
23 c12 13 28 21 35 19 7 -3 13 2 13 10 0 18 18 54 27 54 4 0 17 -9 29 -21z
m2942 -122 c22 -23 22 -23 2 -40 -30 -25 -24 -53 22 -103 l42 -45 -25 -25 -24
-24 -75 75 -74 74 23 25 c13 14 27 24 31 21 3 -2 14 12 25 31 22 40 25 41 53
11z m-3115 -9 l24 22 18 -20 c17 -19 17 -21 0 -40 -21 -23 -15 -43 20 -66 24
-16 27 -16 46 2 19 17 20 17 42 -5 l22 -22 -33 -30 c-44 -40 -77 -38 -124 8
-35 34 -41 36 -60 24 -17 -11 -23 -10 -37 3 -13 14 -14 20 -3 37 12 18 11 24
-7 43 l-21 22 22 22 22 22 23 -22 23 -21 23 21z m2899 -125 c17 -15 19 -15 38
2 19 17 21 17 40 0 l20 -18 -20 -22 -20 -21 28 -27 c32 -31 39 -32 61 -13 14
13 19 12 41 -6 l25 -20 -33 -29 c-46 -41 -86 -39 -134 8 -31 31 -39 34 -53 23
-13 -11 -19 -10 -35 5 -18 17 -19 20 -5 34 13 13 12 17 -7 38 -21 22 -21 23
-3 43 22 24 33 25 57 3z m-1439 -24 c63 -33 63 -38 0 -102 -57 -57 -57 -58
-28 -55 23 2 34 11 45 35 10 22 22 33 38 33 50 0 13 -95 -48 -120 -84 -35
-178 50 -150 135 22 67 89 101 143 74z m-1582 -32 c9 -7 18 -25 21 -40 4 -23
1 -30 -22 -42 -24 -12 -30 -12 -58 5 -20 12 -32 28 -32 41 0 41 56 63 91 36z
m-120 -17 c21 -12 25 -40 7 -58 -17 -17 -22 -15 -47 18 -32 44 -9 66 40 40z
m4605 -31 c19 -11 34 -24 34 -28 0 -4 -22 -29 -50 -56 -54 -53 -60 -65 -32
-65 20 0 45 24 55 53 8 22 57 24 57 2 0 -47 -52 -103 -102 -111 -96 -16 -166
104 -107 180 39 49 92 58 145 25z m-4425 -49 c37 -20 21 -94 -24 -109 -44 -16
-71 10 -62 59 9 53 43 72 86 50z m1378 -91 l44 -100 -23 -24 c-13 -14 -28 -25
-34 -25 -6 0 -55 19 -108 42 l-97 42 21 23 c27 29 31 29 101 -6 31 -15 57 -26
56 -22 0 3 -13 33 -29 66 l-28 60 21 23 c11 12 23 22 26 22 3 0 26 -46 50
-101z m1508 59 c23 -19 16 -64 -13 -77 -55 -25 -114 49 -66 85 18 14 57 10 79
-8z m-132 -8 c16 0 25 -46 12 -59 -18 -18 -31 -12 -50 20 -18 33 -14 54 10 45
8 -3 20 -6 28 -6z m-2955 -30 c6 -11 8 -31 4 -45 -5 -19 -13 -25 -33 -25 -15
0 -30 3 -34 6 -4 5 42 82 50 84 1 0 7 -9 13 -20z m4443 -42 c13 -29 32 -75 42
-101 l18 -48 -26 -26 -26 -27 -101 43 c-55 24 -100 46 -100 49 0 3 10 16 21
28 l22 23 69 -35 69 -35 -35 69 -35 69 22 21 c12 12 25 22 28 22 4 0 18 -24
32 -52z m-4327 1 c19 -18 21 -26 13 -47 -13 -34 -26 -42 -67 -42 -64 0 -69 93
-5 103 15 2 30 5 32 6 3 0 15 -9 27 -20z m3024 -17 c32 -26 20 -85 -21 -103
-25 -10 -32 -9 -49 6 -20 18 -26 60 -12 81 7 11 42 33 53 34 4 0 17 -8 29 -18z
m-200 -112 c-11 -27 -17 -31 -39 -25 -36 9 -36 9 -5 50 24 32 29 34 42 21 13
-12 13 -19 2 -46z m-1507 0 c49 -55 33 -141 -33 -175 -79 -41 -164 12 -164
101 0 100 129 150 197 74z m1629 3 c13 -16 13 -22 2 -50 -13 -29 -18 -33 -53
-33 -54 0 -77 30 -55 71 12 24 21 29 53 29 24 0 44 -7 53 -17z m1234 -52 c62
-38 66 -127 8 -182 -20 -19 -37 -24 -76 -24 -43 0 -53 4 -79 33 -23 25 -29 42
-29 76 0 94 95 146 176 97z m-3088 -102 c-31 -18 -22 -60 24 -106 l42 -43 -25
-25 -24 -25 -75 75 -74 74 23 25 c13 14 27 23 31 21 4 -2 14 12 24 32 l17 36
27 -27 c25 -25 26 -28 10 -37z m2880 -32 l22 -24 -20 -18 c-30 -27 -25 -50 22
-101 l42 -45 -25 -25 -24 -24 -75 75 -74 74 23 25 c13 14 27 23 32 20 4 -2 15
11 25 31 19 41 24 42 52 12z m-3103 -67 l18 -20 24 21 c22 22 23 22 43 4 l20
-18 -22 -24 -21 -23 23 -25 c26 -28 41 -31 69 -13 15 9 23 9 35 -1 22 -18 20
-34 -8 -60 -38 -35 -80 -31 -125 13 -35 34 -41 36 -60 25 -17 -12 -23 -11 -37
2 -13 14 -14 20 -3 37 11 18 10 24 -5 41 -18 20 -18 22 -1 41 23 25 27 25 50
0z m-1428 -27 c19 -9 37 -23 40 -30 4 -9 -16 -36 -48 -69 -52 -53 -53 -54 -26
-54 21 0 33 8 48 35 39 66 80 34 44 -35 -42 -81 -160 -78 -200 6 -22 46 -14
92 23 126 44 42 67 46 119 21z m4315 -40 c17 -15 19 -15 38 2 20 18 21 18 42
-3 21 -21 21 -22 3 -42 -18 -20 -18 -21 5 -45 27 -29 42 -31 60 -10 12 14 16
13 37 -7 l23 -22 -27 -28 c-40 -41 -89 -39 -133 7 -30 31 -35 33 -50 20 -15
-13 -19 -12 -39 9 -19 21 -20 24 -6 36 14 12 13 15 -6 36 -22 23 -22 24 -4 44
22 24 33 25 57 3z m-1355 -97 l28 -25 -53 -54 c-35 -35 -50 -57 -43 -62 17
-10 61 22 61 45 0 16 7 20 30 20 37 0 40 -23 7 -71 -61 -91 -192 -56 -204 55
-5 42 -3 48 30 81 44 44 100 49 144 11z m-1622 -10 c29 -12 35 -20 35 -44 0
-23 -6 -32 -29 -42 -24 -10 -33 -9 -54 5 -36 23 -42 56 -14 77 27 21 21 21 62
4z m-97 -48 c2 -19 -3 -30 -17 -38 -16 -8 -21 -8 -21 1 0 7 -7 20 -16 30 -25
27 -12 49 23 40 20 -5 29 -14 31 -33z m4593 -5 c16 -10 29 -22 29 -28 0 -6
-22 -33 -50 -60 -31 -31 -46 -53 -40 -59 12 -12 56 17 65 43 3 10 17 21 30 24
22 4 25 1 25 -25 0 -46 -57 -98 -106 -98 -84 0 -139 70 -114 145 23 69 97 95
161 58z m-1611 -18 c23 -12 30 -22 30 -45 0 -43 -33 -58 -77 -35 -37 20 -43
48 -16 77 20 22 26 22 63 3z m-115 -15 c22 0 26 -43 6 -63 -18 -18 -19 -17
-40 18 -22 38 -20 60 6 51 8 -3 20 -6 28 -6z m-2702 -14 c14 -11 17 -25 15
-57 -3 -39 -6 -44 -35 -53 -44 -12 -63 5 -63 55 0 32 5 41 28 53 33 19 33 19
55 2z m1392 -116 l33 -78 -27 -26 -28 -27 -99 43 c-54 23 -101 44 -103 45 -3
2 7 15 21 29 l25 26 61 -31 c34 -17 64 -31 67 -31 2 0 -10 29 -27 65 l-32 64
24 26 24 26 14 -26 c7 -15 28 -61 47 -105z m-1587 -4 c-12 -27 -32 -33 -57
-17 -12 8 -10 16 13 46 27 35 29 36 42 16 11 -16 12 -25 2 -45z m3083 45 c21
-16 22 -23 14 -57 -21 -79 -116 -62 -101 19 4 21 15 38 29 45 30 15 32 14 58
-7z m1378 -91 l41 -94 -28 -28 -28 -29 -64 30 c-36 16 -83 36 -104 45 l-40 17
26 26 26 26 63 -32 c34 -17 64 -29 66 -27 3 2 -10 32 -27 66 l-31 62 22 24
c13 13 26 21 30 17 4 -5 26 -51 48 -103z m-4345 51 c14 -16 16 -26 9 -48 -8
-24 -15 -28 -54 -31 -36 -2 -46 1 -57 18 -13 21 -3 56 22 72 21 14 63 8 80
-11z m2770 -68 c-10 -31 -37 -41 -59 -23 -12 10 -10 17 13 46 23 29 28 32 41
19 11 -11 13 -21 5 -42z m119 0 c13 -16 14 -22 2 -50 -12 -29 -19 -33 -53 -33
-57 0 -78 32 -52 81 14 25 80 26 103 2z m-1584 -49 c78 -65 30 -194 -73 -197
-73 -2 -123 54 -113 127 12 88 117 128 186 70z m2877 -62 c30 -24 44 -55 44
-97 0 -29 -8 -45 -34 -71 -29 -29 -41 -34 -79 -34 -54 0 -91 26 -107 75 -15
44 1 96 37 125 33 26 109 27 139 2z m-3098 -65 c22 -23 22 -23 2 -40 -29 -25
-25 -43 25 -96 l45 -48 -25 -23 -26 -24 -74 74 -75 74 22 23 c12 13 28 21 35
19 7 -3 13 1 13 9 0 17 21 55 31 55 3 0 15 -10 27 -23z m2887 -67 c17 -19 17
-21 2 -38 -27 -29 -20 -59 23 -106 l40 -43 -25 -23 -26 -24 -69 69 c-39 38
-70 75 -70 81 0 17 37 47 49 39 6 -3 11 0 11 7 0 16 28 58 39 58 4 0 16 -9 26
-20z m-3062 -62 l24 22 18 -20 c17 -19 17 -21 0 -40 -21 -23 -15 -43 20 -66
24 -16 27 -16 46 2 19 17 20 17 42 -5 l22 -22 -33 -30 c-44 -40 -77 -38 -124
8 -35 34 -41 36 -60 24 -17 -11 -23 -10 -37 3 -13 14 -14 20 -3 37 12 18 11
24 -7 43 l-21 22 22 22 22 22 23 -22 23 -21 23 21z m-1455 -38 c17 -11 32 -23
32 -27 0 -4 -23 -31 -52 -60 -28 -29 -49 -56 -45 -59 13 -13 56 15 63 41 5 20
12 25 36 25 28 0 30 -2 24 -27 -11 -45 -40 -77 -82 -92 -36 -12 -44 -12 -77 4
-44 21 -67 59 -67 111 0 28 8 44 34 70 40 40 83 45 134 14z m4297 -30 l22 -20
18 20 c17 19 19 19 37 4 22 -21 23 -37 3 -54 -14 -12 -13 -16 11 -42 32 -33
37 -34 59 -12 15 16 18 16 36 -3 24 -24 17 -49 -22 -68 -43 -23 -65 -18 -109
21 -34 31 -42 34 -56 24 -13 -11 -19 -10 -36 8 -18 18 -19 23 -8 37 11 13 10
19 -8 38 l-22 23 22 22 c27 27 27 27 53 2z m-1408 -44 l28 -25 -54 -55 c-45
-45 -52 -56 -38 -62 20 -7 46 11 58 43 6 16 17 23 35 23 24 0 26 -2 20 -32
-13 -64 -82 -108 -140 -88 -55 18 -81 54 -81 112 0 43 4 53 33 79 42 38 98 40
139 5z m-3017 -231 c0 -6 -11 -22 -25 -35 l-24 -23 -101 43 c-55 24 -100 46
-100 48 0 3 10 16 21 28 l22 23 59 -30 c33 -17 62 -28 65 -25 3 2 -9 31 -25
64 l-30 59 26 26 25 26 44 -96 c24 -53 43 -101 43 -108z m1455 163 c14 -6 25
-17 25 -24 0 -7 3 -19 6 -28 4 -9 -4 -20 -23 -30 -27 -13 -32 -13 -61 6 -36
22 -42 53 -14 74 21 17 34 17 67 2z m-114 -18 c21 -12 25 -40 7 -58 -17 -17
-22 -15 -47 18 -32 44 -9 66 40 40z m1504 -117 l43 -98 -28 -29 -28 -28 -98
43 c-55 23 -101 44 -103 46 -3 2 7 15 21 29 l25 26 61 -31 c34 -17 64 -31 67
-31 2 0 -10 29 -27 65 l-32 64 24 26 c13 14 25 23 28 20 3 -2 24 -48 47 -102z
m1503 61 c31 -22 29 -60 -5 -78 -25 -12 -31 -12 -55 2 -33 19 -42 51 -21 74
20 22 51 23 81 2z m-124 -10 c20 -8 21 -48 1 -64 -9 -7 -17 -11 -18 -9 -28 36
-45 68 -40 73 8 8 37 8 57 0z m-2703 -14 c37 -20 21 -94 -24 -109 -44 -16 -71
10 -62 59 9 53 43 72 86 50z m-197 -76 c3 -8 3 -26 0 -40 -5 -18 -13 -24 -33
-24 -40 0 -43 9 -14 46 28 38 38 41 47 18z m3084 4 c7 -7 12 -29 12 -50 0 -32
-5 -40 -31 -53 -29 -15 -32 -15 -50 1 -25 23 -26 89 -1 103 23 14 55 14 70 -1z
m-4611 -28 c39 -23 56 -74 42 -125 -18 -65 -98 -101 -157 -71 -43 22 -62 54
-62 104 0 37 6 50 34 78 40 40 92 46 143 14z m1639 -11 c19 -18 21 -26 13 -47
-13 -33 -26 -42 -66 -42 -23 0 -36 6 -43 21 -17 31 4 77 38 82 15 2 29 5 31 6
3 0 15 -9 27 -20z m2772 -36 c16 -28 -6 -63 -40 -63 -34 0 -35 13 -5 50 26 34
33 36 45 13z m-1516 -32 c29 -26 33 -36 33 -79 0 -60 -27 -96 -85 -113 -76
-23 -148 43 -137 125 12 91 120 129 189 67z m1632 0 c31 -35 -3 -91 -54 -91
-41 0 -65 37 -49 73 11 23 20 28 75 36 6 0 19 -8 28 -18z m-4736 -54 c22 -23
22 -23 2 -40 -30 -25 -24 -53 22 -103 l41 -45 -21 -22 -22 -21 -75 74 -75 74
22 23 c11 12 25 20 29 17 5 -3 15 11 23 31 18 41 25 43 54 12z m2878 -68 c23
-22 23 -22 4 -47 -11 -13 -20 -29 -20 -34 0 -5 20 -30 45 -57 l45 -48 -25 -23
-26 -24 -74 74 -75 74 22 23 c12 13 27 22 33 19 7 -2 17 11 24 30 14 40 17 41
47 13z m-3056 -64 c19 17 21 17 40 0 l20 -18 -20 -22 -20 -21 28 -27 c32 -31
39 -32 61 -13 14 13 19 12 41 -5 l25 -19 -33 -30 c-45 -41 -81 -40 -132 6 -33
30 -43 34 -55 24 -13 -10 -19 -9 -35 5 -18 17 -19 20 -5 34 13 13 12 17 -7 38
l-21 23 23 25 24 25 23 -22 c22 -21 23 -21 43 -3z m6000 -100 c-29 -31 -25
-50 22 -101 l42 -45 -25 -25 -24 -24 -75 75 -74 74 23 25 c13 14 28 23 33 20
4 -3 11 3 15 13 3 10 13 26 21 36 15 16 17 16 39 -5 l23 -22 -20 -21z m-3120
30 c10 9 26 15 35 11 25 -9 29 -35 10 -56 -18 -20 -17 -21 5 -45 27 -29 37
-31 60 -10 15 14 20 14 41 -5 l24 -20 -33 -30 c-44 -41 -77 -39 -123 6 -33 32
-39 34 -58 23 -18 -12 -23 -11 -38 4 -15 15 -16 20 -5 38 12 18 11 24 -7 43
l-21 22 22 22 22 22 23 -22 c22 -20 24 -21 43 -3z m-1394 -92 c13 -8 24 -20
24 -26 0 -6 -23 -35 -52 -64 -51 -51 -51 -53 -25 -53 18 0 32 9 44 28 45 71
87 47 48 -28 -41 -80 -160 -78 -199 4 -21 44 -20 64 4 104 36 58 99 73 156 35z
m-1608 -19 c31 -22 30 -67 -3 -82 -55 -25 -114 49 -67 84 23 18 43 17 70 -2z
m5904 -11 c17 -15 19 -15 38 2 20 18 21 18 42 -3 21 -21 21 -22 3 -42 -18 -20
-18 -21 5 -45 25 -27 49 -32 67 -14 8 8 17 7 32 -3 27 -16 26 -20 -5 -52 -40
-39 -90 -36 -134 9 -30 31 -35 33 -50 20 -15 -13 -19 -12 -39 9 -19 21 -20 24
-6 36 14 12 13 15 -6 36 -22 23 -22 24 -4 44 22 24 33 25 57 3z m-1439 -24
c62 -32 62 -38 0 -101 -53 -54 -56 -58 -32 -58 26 0 51 21 62 53 6 17 42 24
50 10 8 -16 -13 -70 -37 -92 -15 -15 -42 -25 -70 -28 -42 -5 -48 -3 -81 30
-29 29 -35 42 -35 79 0 51 21 85 64 104 39 16 52 17 79 3z m-1588 -31 c14 -6
25 -17 25 -24 0 -7 3 -19 6 -28 4 -9 -4 -20 -24 -30 -26 -14 -31 -13 -60 4
-36 22 -40 44 -15 72 19 21 33 22 68 6z m-114 -18 c21 -12 25 -40 7 -58 -17
-17 -22 -15 -47 18 -32 44 -9 66 40 40z m-2696 -20 c27 -30 13 -84 -25 -100
-26 -11 -33 -10 -50 5 -26 23 -26 69 0 95 25 25 52 25 75 0z m1375 -89 l41
-94 -27 -28 -26 -27 -82 35 c-44 19 -92 39 -105 44 l-25 10 27 27 27 26 65
-32 c36 -17 65 -29 65 -27 0 3 -14 33 -31 66 l-30 61 22 24 c13 13 26 21 30
17 4 -5 26 -50 49 -102z m1501 29 c23 -13 26 -71 4 -94 -47 -46 -99 -19 -88
47 4 26 13 41 27 47 28 12 34 12 57 0z m1379 -91 l43 -100 -27 -28 -28 -29
-104 46 -105 45 22 24 c13 12 26 23 31 23 4 0 35 -13 68 -29 33 -16 60 -25 60
-20 0 5 -13 36 -29 68 l-30 58 22 21 c12 12 24 22 28 22 3 0 25 -45 49 -101z
m1489 66 c40 -20 46 -61 14 -82 -23 -15 -27 -15 -59 2 -38 20 -44 47 -17 77
20 22 26 22 62 3z m-114 -15 c19 0 29 -38 15 -55 -18 -21 -26 -19 -50 15 -22
31 -19 55 7 46 8 -3 21 -6 28 -6z m-2949 -44 c7 -30 -11 -67 -31 -61 -8 3 -22
7 -31 10 -13 4 -11 11 13 39 34 42 41 43 49 12z m124 -77 c-17 -32 -29 -39
-65 -39 -41 0 -61 31 -45 71 16 37 65 44 99 13 20 -19 22 -24 11 -45z m3008
35 c42 -29 15 -114 -36 -114 -69 0 -61 120 8 129 3 1 16 -6 28 -15z m-4623
-18 c79 -33 86 -150 11 -200 -32 -20 -95 -21 -124 0 -26 18 -52 65 -52 94 0
34 29 79 63 100 38 24 56 25 102 6z m4429 -93 c-10 -31 -37 -41 -59 -23 -12
10 -10 17 13 46 23 29 28 32 41 19 11 -11 13 -21 5 -42z m-1511 -3 c21 -24 27
-40 27 -76 0 -39 -5 -51 -34 -80 -73 -73 -185 -26 -186 76 0 53 20 86 64 106
45 21 96 10 129 -26z m1631 1 c16 -18 16 -21 1 -50 -13 -26 -21 -31 -53 -31
-59 0 -78 32 -46 78 20 28 74 30 98 3z m-4737 -89 c-28 -30 -21 -63 23 -107
l40 -41 -23 -22 -23 -22 -74 75 c-73 73 -74 74 -55 95 10 11 23 19 29 17 6 -2
19 15 29 37 l18 40 26 -27 c25 -25 26 -27 10 -45z m2881 -35 c21 -22 21 -23 2
-35 -31 -19 -24 -52 22 -99 l42 -43 -25 -25 -24 -25 -75 75 -74 74 23 25 c13
14 28 23 33 20 4 -3 11 3 15 13 8 23 23 43 32 43 4 0 17 -10 29 -23z m-3103
-57 l18 -20 22 20 22 20 18 -20 c18 -19 18 -21 -1 -41 -19 -21 -18 -21 15 -51
31 -27 34 -28 51 -13 15 14 21 14 39 3 27 -17 26 -29 -4 -58 -40 -37 -86 -32
-133 13 -34 33 -39 35 -53 22 -14 -14 -17 -14 -34 5 -15 16 -16 22 -5 35 11
13 9 19 -8 38 l-22 23 22 22 c27 27 30 27 53 2z m2880 -70 l18 -20 24 22 23
22 22 -22 22 -22 -22 -23 -22 -23 23 -22 c27 -25 39 -27 67 -10 15 10 22 9 39
-6 18 -17 19 -20 5 -41 -13 -21 -60 -45 -85 -45 -5 0 -27 17 -50 37 -36 33
-43 35 -61 24 -18 -11 -23 -10 -40 7 -17 17 -18 22 -7 40 11 18 10 24 -5 41
-18 20 -18 22 -1 41 23 25 27 25 50 0z m-1407 -38 c12 -8 22 -19 22 -25 0 -6
-23 -35 -52 -64 -51 -51 -51 -53 -25 -53 22 0 48 23 61 56 1 1 11 5 24 8 20 7
22 4 22 -24 0 -47 -56 -100 -104 -100 -52 0 -90 23 -111 65 -48 103 67 200
163 137z m-1560 -72 c40 -25 44 -65 7 -82 -59 -27 -123 45 -73 84 29 22 26 22
66 -2z m-100 -41 c3 -21 -23 -61 -31 -48 -1 2 -12 18 -24 35 -25 37 -21 46 22
42 24 -2 31 -8 33 -29z m1492 -98 l41 -94 -28 -28 -28 -28 -80 35 c-44 20 -91
40 -104 45 l-25 10 27 27 27 26 65 -32 c36 -17 65 -29 65 -27 0 3 -14 33 -31
66 l-30 61 22 24 c13 13 26 21 30 17 4 -5 26 -50 49 -102z m3107 85 l28 -25
-54 -55 c-45 -45 -52 -56 -38 -62 20 -7 46 11 58 43 6 16 17 23 35 23 24 0 26
-2 20 -32 -13 -64 -85 -109 -142 -88 -67 26 -99 90 -74 151 29 69 113 92 167
45z m-1592 -56 c0 -28 -5 -36 -26 -44 -58 -20 -106 54 -58 88 18 12 27 13 53
2 26 -10 31 -18 31 -46z m-127 1 c4 -22 -13 -51 -29 -51 -5 0 -9 5 -9 12 0 6
-7 19 -16 29 -9 10 -14 25 -11 33 9 23 61 5 65 -23z m-2700 -40 c3 -39 1 -42
-30 -55 -30 -13 -35 -13 -54 5 -29 27 -21 85 15 104 39 20 65 0 69 -54z m2864
-14 c17 -14 21 -26 19 -70 -1 -22 -8 -31 -33 -42 -29 -12 -35 -11 -50 2 -18
16 -24 69 -10 89 7 11 42 33 52 33 3 0 12 -5 22 -12z m1385 -95 l41 -97 -28
-29 -28 -28 -98 43 c-55 23 -101 44 -103 46 -3 2 7 15 21 29 l25 26 61 -31
c34 -17 64 -31 67 -31 2 0 -10 29 -27 65 l-32 64 24 26 c13 14 26 22 29 19 3
-3 25 -49 48 -102z m-4459 81 c16 -28 -6 -63 -40 -63 -33 0 -35 12 -7 51 23
33 34 36 47 12z m117 -33 c26 -28 5 -75 -37 -84 -54 -11 -87 23 -66 69 17 38
74 47 103 15z m2765 -29 c15 -29 -7 -71 -36 -71 -35 0 -38 17 -7 55 15 19 29
35 30 35 1 0 7 -9 13 -19z m-1557 -12 c46 -13 77 -57 77 -112 0 -31 -7 -46
-34 -73 -28 -28 -41 -34 -78 -34 -24 0 -54 7 -66 16 -27 19 -52 65 -52 96 0
35 37 88 73 103 39 17 34 17 80 4z m1672 -29 c27 -30 10 -73 -30 -80 -40 -8
-59 -3 -73 20 -34 55 59 108 103 60z m1305 -117 c36 -32 49 -93 28 -133 -16
-30 -74 -70 -100 -70 -57 0 -118 59 -118 115 0 34 24 80 52 99 37 26 103 21
138 -11z m-3155 -3 c17 -19 17 -21 2 -38 -27 -29 -20 -59 23 -106 l40 -43 -23
-21 -23 -22 -74 75 c-73 74 -74 74 -55 95 10 11 24 19 30 16 7 -2 17 11 24 30
14 39 30 43 56 14z m2935 -168 c-11 -13 -20 -29 -20 -34 0 -5 20 -30 45 -57
l45 -48 -25 -23 -26 -24 -74 74 -75 74 22 23 c12 13 28 21 35 19 7 -3 13 0 13
7 0 7 7 23 16 36 l16 22 24 -22 23 -22 -19 -25z m-3155 38 l22 -20 18 20 18
20 24 -22 23 -22 -20 -21 -20 -21 30 -29 c28 -27 30 -28 49 -11 16 15 22 15
40 4 29 -18 26 -32 -10 -62 -42 -35 -71 -33 -119 10 -34 31 -42 34 -56 24 -13
-11 -19 -10 -36 8 -18 18 -19 23 -8 37 11 13 10 19 -8 38 l-22 23 22 22 c27
27 27 27 53 2z m-1382 -81 c63 -33 63 -38 0 -102 -57 -57 -57 -58 -28 -55 23
2 34 11 45 36 12 25 20 32 40 30 20 -2 24 -8 22 -27 -8 -52 -62 -101 -112
-101 -29 0 -76 26 -94 52 -9 12 -16 41 -16 64 0 81 78 137 143 103z m4357 -44
c36 33 78 -9 45 -45 -18 -20 -17 -21 5 -45 27 -29 42 -31 63 -11 12 13 17 13
36 0 27 -20 27 -30 -5 -59 -39 -37 -80 -33 -125 11 -33 32 -39 34 -58 23 -18
-12 -23 -11 -38 4 -15 15 -16 20 -5 38 12 18 11 24 -7 43 l-21 22 22 22 22 22
23 -22 c22 -20 24 -21 43 -3z m-1452 -35 c17 -11 32 -23 32 -28 0 -4 -22 -30
-50 -57 -54 -53 -60 -65 -32 -65 20 0 45 24 55 53 4 10 17 17 33 17 25 0 26
-2 20 -32 -3 -18 -18 -45 -33 -60 -75 -79 -205 -14 -190 94 11 85 92 122 165
78z m-1591 -32 c7 -6 13 -21 13 -34 0 -34 -39 -51 -79 -35 -38 16 -47 49 -20
78 18 18 26 20 47 12 15 -6 32 -15 39 -21z m-133 -4 c20 -8 21 -48 1 -64 -9
-7 -17 -11 -18 -9 -1 2 -12 18 -24 35 -12 18 -19 34 -16 38 8 8 37 8 57 0z
m194 -132 c3 -37 0 -42 -28 -57 -30 -15 -33 -15 -51 1 -12 11 -19 30 -19 55 0
32 5 41 28 53 39 21 66 2 70 -52z m1365 -39 l44 -102 -28 -27 -29 -27 -100 43
c-55 24 -100 46 -100 48 0 3 10 16 21 28 l22 23 68 -35 c38 -19 69 -32 69 -30
0 2 -13 31 -30 64 -16 34 -30 64 -30 68 0 8 42 55 46 51 1 -1 22 -48 47 -104z
m1492 65 c26 -12 42 -48 30 -68 -13 -22 -49 -28 -77 -14 -35 18 -45 50 -22 75
20 22 33 24 69 7z m-121 -18 c28 -10 34 -38 14 -58 -17 -17 -22 -15 -47 18
-32 44 -18 60 33 40z m1810 -39 l20 -21 -52 -53 c-29 -29 -52 -56 -52 -61 0
-20 47 2 65 31 13 20 28 32 43 33 62 1 -10 -116 -78 -126 -45 -6 -94 23 -117
71 -36 76 27 162 111 151 21 -2 48 -14 60 -25z m-4756 2 c16 -28 -6 -63 -40
-63 -34 0 -35 11 -6 50 25 34 33 37 46 13z m116 -32 c23 -25 12 -69 -21 -82
-39 -15 -62 -11 -78 15 -13 19 -13 28 -4 49 17 38 76 48 103 18z m3017 -11
c14 -8 19 -21 19 -51 0 -35 -4 -41 -36 -56 -35 -17 -37 -17 -53 3 -24 30 -16
88 12 102 29 14 35 14 58 2z m-196 -77 c21 -28 -6 -72 -40 -66 -31 6 -31 17
-2 53 26 35 26 35 42 13z m1644 -84 l44 -100 -23 -24 c-13 -14 -28 -25 -34
-25 -10 0 -194 78 -206 88 -3 2 8 15 23 28 l28 24 59 -30 c33 -17 62 -30 64
-30 3 0 -9 29 -26 65 -29 63 -30 67 -13 85 10 11 23 20 29 20 6 0 31 -46 55
-101z m-3179 66 c65 -34 76 -121 24 -176 -71 -74 -194 -27 -194 73 0 90 90
145 170 103z m1654 -24 c15 -16 16 -23 5 -43 -16 -31 -28 -38 -64 -38 -42 0
-61 31 -45 71 11 25 18 29 50 29 24 0 43 -7 54 -19z m-1854 -156 c-29 -31 -25
-50 22 -101 l41 -45 -21 -22 -22 -21 -75 74 -75 74 21 22 c12 13 27 20 35 17
9 -3 14 2 14 13 0 9 8 26 17 36 16 18 17 18 40 -4 l23 -22 -20 -21z m3226 -29
c46 -46 48 -100 3 -150 -38 -44 -83 -54 -131 -32 -114 54 -72 216 56 216 30 0
45 -7 72 -34z m-3444 -63 c17 -15 19 -15 38 2 20 18 21 18 42 -3 21 -21 21
-22 3 -42 -18 -20 -18 -21 5 -45 27 -29 42 -31 60 -10 10 12 15 12 36 -2 30
-19 30 -24 -2 -57 -39 -38 -84 -35 -131 8 -31 27 -41 31 -55 23 -13 -9 -22 -7
-38 8 -18 17 -19 20 -5 34 13 13 12 17 -7 38 -21 22 -21 23 -3 43 22 24 33 25
57 3z m-1439 -24 c62 -32 62 -38 0 -101 -53 -54 -56 -58 -32 -58 26 0 51 21
62 53 7 18 42 23 52 7 8 -14 -19 -72 -45 -95 -16 -14 -36 -20 -72 -20 -43 0
-53 4 -79 33 -78 87 14 233 114 181z m4664 -68 c-31 -36 -28 -51 20 -102 l46
-49 -23 -25 -24 -26 -73 73 c-40 40 -73 78 -73 84 0 17 37 47 49 39 6 -3 11 0
11 7 0 8 7 24 16 37 l16 22 24 -22 c21 -19 22 -25 11 -38z m-1694 -74 l29 -20
-58 -58 c-52 -53 -56 -59 -34 -59 26 0 60 26 60 45 0 7 11 15 25 17 22 5 25 2
25 -24 0 -45 -57 -98 -104 -98 -101 0 -154 95 -100 178 33 50 102 58 157 19z
m-3113 -77 l43 -100 -23 -25 c-13 -14 -28 -25 -34 -25 -6 0 -55 19 -108 42
l-97 42 21 23 c27 29 32 29 97 -3 29 -14 55 -23 58 -21 2 3 -9 32 -26 64 l-30
60 22 21 c12 12 24 22 28 22 3 0 25 -45 49 -100z m1506 59 c7 -5 14 -21 17
-35 3 -19 -2 -29 -20 -41 -23 -15 -27 -15 -59 2 -38 20 -44 47 -17 77 17 19
54 18 79 -3z m3076 -6 c17 -15 19 -15 38 2 36 33 78 -9 45 -45 -18 -20 -17
-21 5 -45 26 -28 41 -31 69 -13 15 9 23 9 35 -1 22 -18 20 -28 -9 -56 -36 -37
-81 -33 -126 11 -33 32 -39 34 -58 23 -18 -12 -23 -11 -38 4 -15 15 -16 20 -5
38 11 18 11 24 -4 40 -16 18 -16 20 1 39 22 24 24 24 47 3z m-3207 -3 c23 0
29 -39 9 -61 -17 -19 -18 -18 -41 16 -25 36 -23 61 4 51 8 -3 21 -6 28 -6z
m183 -86 c42 -29 15 -114 -36 -114 -69 0 -61 120 8 129 3 1 16 -6 28 -15z
m1380 -86 l43 -102 -28 -27 -28 -28 -80 35 c-44 20 -91 40 -104 45 l-25 10 27
27 27 26 65 -32 c36 -17 65 -29 65 -27 0 3 -14 33 -31 66 l-30 61 22 24 c12
13 25 24 28 24 3 0 25 -46 49 -102z m-1568 -7 c0 -10 -6 -26 -14 -36 -12 -17
-17 -18 -40 -7 l-27 12 28 34 c20 27 30 32 40 24 7 -6 13 -18 13 -27z m-1523
-13 c69 -69 32 -182 -65 -195 -47 -6 -94 17 -111 54 -28 60 -2 140 53 164 34
14 97 3 123 -23z m4646 21 c47 -25 51 -71 8 -89 -57 -23 -116 45 -71 82 26 21
34 22 63 7z m-3009 -28 c16 -18 16 -21 1 -51 -15 -28 -20 -31 -57 -28 -52 4
-66 24 -48 67 11 27 17 31 50 31 24 0 43 -7 54 -19z m2890 9 c30 -11 33 -35
10 -61 -16 -17 -18 -17 -39 14 -15 22 -19 36 -12 45 11 14 9 14 41 2z m190
-83 c28 -21 18 -87 -16 -107 -40 -22 -62 -5 -66 52 -3 38 0 46 20 56 31 14 41
14 62 -1z m-1792 -29 c26 -13 48 -61 48 -104 0 -28 -8 -44 -34 -70 -29 -29
-41 -34 -79 -34 -56 0 -92 27 -108 80 -10 32 -9 44 7 77 31 63 101 85 166 51z
m-3145 -56 c-26 -29 -20 -53 25 -99 l42 -43 -25 -25 -24 -25 -75 75 -74 74 23
25 c13 14 27 24 31 21 3 -2 15 12 25 31 l19 35 25 -25 c23 -24 24 -26 8 -44z
m4738 11 c17 -23 -8 -78 -31 -69 -9 3 -20 6 -25 6 -15 0 -10 21 14 50 26 35
26 35 42 13z m119 -42 c16 -17 16 -23 4 -48 -11 -23 -21 -29 -53 -31 -52 -4
-73 24 -55 69 11 25 18 29 50 29 24 0 43 -7 54 -19z m-1916 -54 c21 -22 21
-23 2 -35 -32 -19 -24 -58 20 -106 l40 -43 -23 -21 -23 -22 -74 75 c-73 74
-74 74 -55 95 10 11 25 18 32 16 7 -3 13 0 13 7 0 15 28 57 39 57 4 0 17 -10
29 -23z m-3163 -7 l18 -20 24 22 23 22 22 -22 22 -22 -22 -23 -22 -23 23 -22
c27 -25 39 -27 67 -10 17 11 23 9 40 -8 l20 -20 -30 -29 c-42 -41 -81 -38
-129 9 -34 33 -39 35 -51 21 -12 -14 -15 -13 -37 7 -21 19 -22 24 -8 37 13 13
12 18 -7 38 -21 22 -21 23 -3 43 23 25 27 25 50 0z m2940 -120 l22 -20 18 20
18 20 24 -22 23 -22 -20 -21 -20 -21 28 -27 c27 -26 62 -29 62 -6 0 13 12 11
33 -6 25 -18 14 -51 -23 -70 -44 -23 -66 -18 -110 21 -34 31 -42 34 -56 24
-13 -11 -19 -10 -36 8 -18 18 -19 23 -8 37 11 13 10 18 -4 33 -20 23 -20 31 1
54 20 23 22 22 48 -2z m-1408 -44 l28 -25 -54 -55 c-45 -46 -52 -56 -37 -62
19 -7 52 18 61 47 4 12 16 19 32 19 23 0 25 -3 19 -32 -21 -103 -151 -125
-206 -35 -24 38 -25 68 -5 107 33 63 110 81 162 36z m-1617 -11 c23 -12 30
-22 30 -45 0 -42 -35 -58 -79 -36 -35 19 -41 49 -14 78 20 22 26 22 63 3z
m-97 -41 c2 -14 -3 -30 -13 -39 -16 -15 -19 -13 -40 19 -26 42 -21 54 19 48
21 -3 30 -11 34 -28z m166 -65 c18 -17 21 -27 16 -52 -17 -79 -105 -71 -105 9
0 26 6 37 28 48 35 20 34 20 61 -5z m1378 -86 l43 -97 -28 -29 -28 -28 -94 41
c-52 22 -98 44 -102 48 -5 5 3 18 16 31 l24 22 61 -30 c33 -17 63 -31 66 -31
2 0 -10 29 -27 65 l-32 64 24 26 c13 14 25 23 28 20 3 -2 24 -48 49 -102z
m1501 61 c31 -21 29 -60 -5 -77 -23 -12 -30 -12 -54 2 -34 19 -43 50 -22 73
20 22 51 23 81 2z m-124 -10 c20 -8 21 -48 1 -64 -9 -7 -17 -11 -18 -9 -1 2
-12 18 -24 35 -12 18 -19 34 -16 38 8 8 37 8 57 0z m1795 -35 l34 -20 -57 -58
c-48 -48 -55 -59 -40 -65 19 -7 64 28 64 51 0 7 11 13 25 13 38 0 34 -43 -9
-86 -29 -29 -41 -34 -79 -34 -37 0 -51 5 -76 31 -25 24 -31 39 -31 72 1 100
85 147 169 96z m-4634 -39 c15 -16 17 -26 9 -48 -8 -23 -16 -27 -54 -30 -37
-2 -47 1 -58 18 -13 21 -3 56 22 72 21 14 63 8 81 -12z m3023 -12 c7 -7 12
-29 12 -50 0 -32 -5 -40 -31 -53 -29 -15 -32 -15 -50 1 -25 23 -26 89 -1 103
23 14 55 14 70 -1z m-200 -75 c16 -28 -6 -63 -40 -63 -34 0 -35 13 -5 50 26
34 33 36 45 13z m3135 -13 c44 -22 33 -90 -15 -90 -31 0 -68 30 -68 56 0 21
35 57 49 51 3 -2 18 -9 34 -17z m-3021 -17 c24 -21 23 -48 -2 -73 -47 -47
-125 -5 -99 53 7 16 22 28 38 30 14 2 30 5 35 6 5 0 18 -6 28 -16z m2904 -1
c20 -14 23 -40 5 -56 -16 -15 -19 -14 -40 14 -12 17 -19 35 -16 40 7 12 35 13
51 2z"/>
<path d="M691 9944 c-20 -15 -30 -54 -13 -54 5 0 21 13 36 29 21 22 24 30 13
34 -8 3 -24 -1 -36 -9z"/>
<path d="M3620 9816 c-6 -8 -10 -24 -8 -36 3 -20 6 -19 37 14 l35 36 -26 0
c-14 0 -31 -7 -38 -14z"/>
<path d="M357 9592 c-22 -24 -21 -45 1 -65 23 -21 46 -22 66 -1 21 21 20 40
-4 64 -25 25 -42 25 -63 2z"/>
<path d="M3292 9468 c-16 -16 -15 -53 2 -67 22 -19 68 -9 77 15 16 45 -46 85
-79 52z"/>
<path d="M6172 9398 c-17 -17 -15 -42 6 -61 33 -30 82 -16 82 24 0 40 -60 65
-88 37z"/>
<path d="M1452 9178 c-7 -7 -12 -23 -12 -37 l0 -25 30 29 c17 16 30 32 30 37
0 12 -34 10 -48 -4z"/>
<path d="M4336 9104 c-9 -8 -16 -25 -16 -37 0 -19 3 -18 35 13 19 19 35 35 35
37 0 10 -41 0 -54 -13z"/>
<path d="M1122 8828 c-16 -16 -15 -53 2 -67 8 -7 27 -11 43 -9 23 2 29 9 31
33 5 44 -46 73 -76 43z"/>
<path d="M4000 8754 c-10 -11 -11 -23 -4 -42 13 -36 67 -44 84 -12 25 47 -47
95 -80 54z"/>
<path d="M2220 8410 c-20 -20 -27 -50 -12 -50 5 0 21 13 36 29 23 24 25 29 11
34 -9 4 -24 -2 -35 -13z"/>
<path d="M5108 8349 c-10 -5 -18 -22 -18 -36 l0 -27 30 29 c37 36 29 59 -12
34z"/>
<path d="M1892 8064 c-27 -18 -28 -45 -4 -67 25 -23 59 -21 72 2 14 28 13 38
-10 61 -24 24 -29 24 -58 4z"/>
<path d="M4770 7990 c-11 -11 -20 -24 -20 -30 0 -17 39 -50 58 -50 44 0 57 58
20 84 -29 20 -34 20 -58 -4z"/>
<path d="M2918 7685 c-18 -39 -1 -42 35 -7 l32 32 -28 0 c-20 0 -31 -7 -39
-25z"/>
<path d="M5866 7574 c-9 -8 -16 -25 -16 -37 0 -19 3 -18 35 13 19 19 35 35 35
37 0 10 -41 0 -54 -13z"/>
<path d="M2589 7344 c-19 -23 8 -68 44 -72 34 -4 56 33 38 67 -14 25 -62 29
-82 5z"/>
<path d="M5530 7224 c-10 -11 -11 -23 -4 -42 13 -36 67 -44 84 -12 25 47 -47
95 -80 54z"/>
<path d="M810 7000 c-11 -11 -17 -26 -13 -35 5 -14 10 -12 34 11 16 15 29 31
29 36 0 15 -30 8 -50 -12z"/>
<path d="M3696 6934 c-9 -8 -16 -25 -16 -37 0 -19 2 -19 30 8 17 16 30 32 30
37 0 14 -28 9 -44 -8z"/>
<path d="M477 6649 c-30 -42 12 -92 59 -70 29 13 32 51 6 74 -25 23 -48 21
-65 -4z"/>
<path d="M3362 6588 c-35 -35 14 -102 57 -78 28 14 29 65 2 80 -26 13 -44 13
-59 -2z"/>
<path d="M1528 6299 c-10 -5 -18 -22 -18 -36 l0 -27 30 29 c37 36 29 59 -12
34z"/>
<path d="M4449 6154 c-15 -40 -2 -42 34 -6 l32 32 -28 0 c-21 0 -30 -7 -38
-26z"/>
<path d="M1192 5948 c-20 -20 -14 -66 9 -79 31 -16 69 3 69 34 0 43 -51 72
-78 45z"/>
<path d="M4120 5809 c-17 -30 12 -71 47 -67 36 4 50 29 35 62 -15 33 -66 37
-82 5z"/>
<path d="M2286 5524 c-17 -16 -22 -44 -8 -44 5 0 21 14 37 30 27 28 27 30 8
30 -12 0 -29 -7 -37 -16z"/>
<path d="M5164 5445 c-25 -38 -7 -51 27 -19 34 33 36 44 9 44 -11 0 -27 -11
-36 -25z"/>
<path d="M1950 5174 c-23 -27 -1 -68 38 -72 26 -3 34 1 44 22 9 22 8 29 -7 46
-22 24 -58 26 -75 4z"/>
<path d="M4830 5099 c-17 -30 12 -71 47 -67 36 4 50 29 35 62 -15 33 -66 37
-82 5z"/>
<path d="M116 4884 c-9 -8 -16 -25 -16 -37 0 -19 2 -19 30 8 17 16 30 32 30
37 0 14 -28 9 -44 -8z"/>
<path d="M3058 4769 c-10 -5 -18 -22 -18 -36 l0 -27 30 29 c37 36 29 59 -12
34z"/>
<path d="M5937 4692 c-18 -19 -23 -52 -9 -52 14 0 63 56 55 63 -11 12 -29 8
-46 -11z"/>
<path d="M2728 4419 c-29 -16 -23 -67 8 -81 49 -22 85 32 48 73 -19 21 -31 23
-56 8z"/>
<path d="M5608 4349 c-36 -20 -9 -89 35 -89 15 0 47 35 47 52 0 13 -39 48 -52
48 -7 0 -21 -5 -30 -11z"/>
<path d="M869 4109 c-19 -36 5 -42 36 -9 l29 30 -27 0 c-17 0 -30 -8 -38 -21z"/>
<path d="M3767 4052 c-18 -19 -23 -52 -9 -52 5 0 21 13 36 29 23 24 25 29 11
35 -22 8 -19 9 -38 -12z"/>
<path d="M550 3770 c-24 -24 -24 -29 -4 -58 27 -39 84 -23 84 24 0 41 -51 63
-80 34z"/>
<path d="M3438 3709 c-29 -16 -23 -67 8 -81 52 -24 89 43 42 76 -26 19 -27 19
-50 5z"/>
<path d="M1646 3354 c-9 -8 -16 -25 -16 -37 0 -19 2 -19 30 8 17 16 30 32 30
37 0 14 -28 9 -44 -8z"/>
<path d="M4524 3275 c-25 -38 -7 -51 27 -19 34 33 36 44 9 44 -11 0 -27 -11
-36 -25z"/>
<path d="M1312 3008 c-34 -34 13 -102 56 -79 27 14 32 34 18 62 -13 27 -54 37
-74 17z"/>
<path d="M4189 2929 c-24 -46 28 -92 70 -62 26 18 27 45 3 66 -26 23 -59 21
-73 -4z"/>
<path d="M2357 2642 c-18 -19 -23 -52 -9 -52 14 0 63 56 55 63 -11 12 -29 8
-46 -11z"/>
<path d="M5301 2524 c-20 -15 -30 -54 -13 -54 5 0 21 13 36 29 21 22 24 30 13
34 -8 3 -24 -1 -36 -9z"/>
<path d="M2025 2294 c-23 -23 -15 -56 18 -74 27 -14 29 -14 48 9 24 29 24 36
-1 61 -24 24 -43 25 -65 4z"/>
<path d="M4973 2179 c-26 -9 -32 -56 -11 -77 16 -16 53 -15 68 2 29 36 -13 92
-57 75z"/>
<path d="M228 1935 c-18 -39 -1 -42 35 -7 l32 32 -28 0 c-20 0 -31 -7 -39 -25z"/>
<path d="M3116 1869 c-8 -12 -12 -28 -9 -36 4 -11 12 -8 34 13 16 15 29 31 29
36 0 17 -39 7 -54 -13z"/>
<path d="M6122 1688 c-14 -14 -16 -48 -4 -48 5 0 21 14 37 30 l29 30 -25 0
c-14 0 -30 -5 -37 -12z"/>
<path d="M2787 1533 c-11 -11 -8 -58 5 -71 28 -28 78 -7 78 33 0 12 -5 26 -12
33 -13 13 -60 16 -71 5z"/>
<path d="M5792 1338 c-28 -28 -7 -78 33 -78 27 0 45 18 45 45 0 27 -18 45 -45
45 -12 0 -26 -5 -33 -12z"/>
<path d="M945 1230 c-10 -11 -15 -26 -11 -36 6 -15 10 -14 36 11 17 16 30 32
30 37 0 16 -37 8 -55 -12z"/>
<path d="M3887 1112 c-18 -19 -23 -52 -9 -52 14 0 63 56 55 63 -11 12 -29 8
-46 -11z"/>
<path d="M609 879 c-17 -33 3 -69 39 -69 32 0 52 16 52 41 0 45 -70 67 -91 28z"/>
<path d="M3556 764 c-21 -21 -20 -47 2 -67 24 -22 45 -21 65 1 22 24 21 38 -3
62 -24 24 -43 25 -64 4z"/>
<path d="M1721 474 c-20 -15 -30 -54 -13 -54 5 0 21 13 36 29 21 22 24 30 13
34 -8 3 -24 -1 -36 -9z"/>
<path d="M4720 280 c-20 -20 -27 -50 -12 -50 14 0 63 56 55 63 -11 11 -22 8
-43 -13z"/>
<path d="M2520 10221 c-19 -37 19 -79 60 -66 25 8 37 50 20 70 -18 22 -67 19
-80 -4z"/>
<path d="M5412 10168 c-18 -18 -14 -53 8 -73 44 -40 97 27 54 69 -18 19 -45
21 -62 4z"/>
<path d="M42 7768 c-14 -14 -16 -48 -4 -48 5 0 21 14 37 30 l29 30 -25 0 c-14
0 -30 -5 -37 -12z"/>
<path d="M6240 6510 c-25 -47 22 -94 66 -65 28 18 30 32 8 63 -19 28 -60 29
-74 2z"/>
<path d="M1388 129 c-36 -20 -12 -89 31 -89 41 0 55 54 23 83 -21 19 -30 20
-54 6z"/>
</g>
</svg>
